<svg width="24" height="24" viewBox="0 0 24 24" fill="none" xmlns="http://www.w3.org/2000/svg">
<path fill-rule="evenodd" clip-rule="evenodd" d="M7.22036 6.27928C7.22036 3.63976 9.36012 1.5 11.9996 1.5C14.6392 1.5 16.7789 3.63976 16.7789 6.27928V7.20307H19.0194C19.2793 7.20307 19.4959 7.40228 19.5176 7.66134L20.7151 21.9582C20.7268 22.0975 20.6796 22.2354 20.5849 22.3384C20.4902 22.4413 20.3567 22.4999 20.2169 22.4999H3.78223C3.64368 22.4999 3.51135 22.4424 3.41679 22.3412C3.32223 22.2399 3.27393 22.1039 3.2834 21.9657L4.26294 7.6689C4.2809 7.40663 4.49889 7.20307 4.76177 7.20307H7.22036V6.27928ZM15.7789 7.20307H8.22036V6.27928C8.22036 4.19204 9.91241 2.5 11.9996 2.5C14.0869 2.5 15.7789 4.19204 15.7789 6.27928V7.20307ZM7.22036 8.20307H5.22868L4.31766 21.4999H19.6732L18.5595 8.20307H16.7789H7.22036Z" fill="black"></path>
</svg>