<svg width="24" height="24" viewBox="0 0 24 24" fill="none" xmlns="http://www.w3.org/2000/svg">
<path fill-rule="evenodd" clip-rule="evenodd" d="M12 2.5C6.75329 2.5 2.5 6.75329 2.5 12C2.5 14.698 3.6247 17.1333 5.43082 18.8627C6.53584 16.3319 9.06048 14.5625 11.9994 14.5625C14.9387 14.5625 17.4635 16.3322 18.5684 18.8634C20.375 17.134 21.5 14.6984 21.5 12C21.5 6.75329 17.2467 2.5 12 2.5ZM17.7681 19.5491C16.8881 17.2189 14.6366 15.5625 11.9994 15.5625C9.36251 15.5625 7.11123 17.2186 6.23104 19.5484C7.83044 20.7726 9.83027 21.5 12 21.5C14.1693 21.5 16.1688 20.7729 17.7681 19.5491ZM1.5 12C1.5 6.20101 6.20101 1.5 12 1.5C17.799 1.5 22.5 6.20101 22.5 12C22.5 17.799 17.799 22.5 12 22.5C6.20101 22.5 1.5 17.799 1.5 12ZM11.9998 7.16699C10.435 7.16699 9.1665 8.43552 9.1665 10.0003C9.1665 11.5651 10.435 12.8337 11.9998 12.8337C13.5646 12.8337 14.8332 11.5651 14.8332 10.0003C14.8332 8.43552 13.5646 7.16699 11.9998 7.16699ZM8.1665 10.0003C8.1665 7.88323 9.88274 6.16699 11.9998 6.16699C14.1169 6.16699 15.8332 7.88323 15.8332 10.0003C15.8332 12.1174 14.1169 13.8337 11.9998 13.8337C9.88274 13.8337 8.1665 12.1174 8.1665 10.0003Z" fill="black"></path>
</svg>