<svg width="24" height="24" viewBox="0 0 24 24" fill="none" xmlns="http://www.w3.org/2000/svg">
<path fill-rule="evenodd" clip-rule="evenodd" d="M10.3924 3C6.38196 3 3.13086 6.2511 3.13086 10.2615C3.13086 14.272 6.38196 17.5231 10.3924 17.5231C14.4028 17.5231 17.6539 14.272 17.6539 10.2615C17.6539 6.2511 14.4028 3 10.3924 3ZM2.13086 10.2615C2.13086 5.69882 5.82968 2 10.3924 2C14.9551 2 18.6539 5.69882 18.6539 10.2615C18.6539 12.4301 17.8185 14.4034 16.4518 15.8773C16.4582 15.8832 16.4646 15.8892 16.4708 15.8954L21.7219 21.1464C21.9171 21.3417 21.9171 21.6583 21.7219 21.8536C21.5266 22.0488 21.21 22.0488 21.0148 21.8536L15.7637 16.6025C15.7521 16.5909 15.7413 16.579 15.7311 16.5666C14.2912 17.7871 12.4278 18.5231 10.3924 18.5231C5.82968 18.5231 2.13086 14.8243 2.13086 10.2615Z" fill="black"></path>
</svg>