<svg width="24" height="24" viewBox="0 0 24 24" fill="none" xmlns="http://www.w3.org/2000/svg">
<path fill-rule="evenodd" clip-rule="evenodd" d="M12 1.5C12.192 1.5 12.367 1.60994 12.4504 1.78289L15.5374 8.18694L22.5819 9.14387C22.7722 9.16971 22.9308 9.30221 22.9901 9.48481C23.0495 9.66741 22.999 9.86786 22.8603 10.0006L17.7236 14.9154L18.9904 21.9109C19.0246 22.0998 18.9476 22.2917 18.7923 22.4045C18.6369 22.5174 18.4307 22.5313 18.2616 22.4404L12 19.0739L5.73836 22.4404C5.56926 22.5313 5.36303 22.5174 5.2077 22.4045C5.05237 22.2917 4.97539 22.0998 5.0096 21.9109L6.27638 14.9154L1.1397 10.0006C1.00098 9.86786 0.950509 9.66741 1.00984 9.48481C1.06917 9.30221 1.22782 9.16971 1.41806 9.14387L8.4626 8.18694L11.5496 1.78289C11.633 1.60994 11.808 1.5 12 1.5ZM12 3.15149L9.24668 8.86331C9.1738 9.01452 9.02991 9.11906 8.86358 9.14165L2.5805 9.99515L7.16195 14.3787C7.28323 14.4948 7.33819 14.6639 7.30828 14.8291L6.17842 21.0684L11.7632 18.0658C11.9111 17.9863 12.0889 17.9863 12.2368 18.0658L17.8216 21.0684L16.6917 14.8291C16.6618 14.6639 16.7168 14.4948 16.838 14.3787L21.4195 9.99515L15.1364 9.14165C14.9701 9.11906 14.8262 9.01452 14.7533 8.86331L12 3.15149Z" fill="black"></path>
</svg>